<?xml version="1.0" encoding="utf-8"?>
<!-- Generator: Adobe Illustrator 26.0.3, SVG Export Plug-In . SVG Version: 6.00 Build 0)  -->
<svg version="1.1" id="Capa_1" xmlns="http://www.w3.org/2000/svg" xmlns:xlink="http://www.w3.org/1999/xlink" x="0px" y="0px"
	 viewBox="0 0 595.28 841.89" style="enable-background:new 0 0 595.28 841.89;" xml:space="preserve">
<style type="text/css">
	.st0{fill:#E60101;}
</style>
<g>
	<path class="st0" d="M1146.91,512.92c-2.16,0.04-4.33,0.11-6.49,0.11c-255.1,0-510.19-0.01-765.29,0.04
		c-10.93,0-21.24,3.85-31.77,6.18c-12.97,2.88-26.13,5.01-38.79,9.2c-0.86,0.28-1.57,0.02-2.39-0.15
		c-23.44-4.93-46.89-9.84-70.35-14.66c-2.42-0.5-4.96-0.6-7.44-0.6c-251.43-0.02-502.86-0.02-754.29-0.03
		c-1.66,0-3.33-0.07-4.99-0.11c0-4.33,0-8.67,0-13c254.42,0,508.84-0.04,763.25,0.18c7.81,0.01,15.62,2.6,23.42,4.05
		c16.04,2.99,32.09,5.97,48.11,9.07c5.85,1.13,11.2-1.19,16.69-2.21c14.73-2.74,29.49-5.51,44-9.2c6.75-1.72,13.34-1.88,20.08-1.88
		c255.42-0.01,510.83-0.01,766.25-0.01C1146.91,504.26,1146.91,508.59,1146.91,512.92z"/>
</g>
</svg>
