<?xml version="1.0" encoding="utf-8"?>
<!-- Generator: Adobe Illustrator 26.0.3, SVG Export Plug-In . SVG Version: 6.00 Build 0)  -->
<svg version="1.1" id="Capa_1" xmlns="http://www.w3.org/2000/svg" xmlns:xlink="http://www.w3.org/1999/xlink" x="0px" y="0px"
	 viewBox="0 0 1050 200" style="enable-background:new 0 0 1050 200;" xml:space="preserve">
<style type="text/css">
	.st0{fill:#FEFEFE;}
	.st1{fill:#020203;}
	.st2{fill:#8F8F8F;}
</style>
<g>
	<path class="st0" d="M1040.47,190.98c0.03-55.49,0.03-110.98,0.07-166.47c-0.17-0.08-0.34-0.18-0.5-0.28
		c-0.07,36.65-0.09,73.3-0.11,109.95c0,10.64-0.01,21.27-0.01,31.91c0,3.21,0,6.43-0.13,9.64c-0.1-13.85-0.58-27.7-0.22-41.55
		c-0.08-19.16-0.14-38.33-0.24-57.49c-0.09-17.18-0.24-34.35-0.28-51.53c0-1.67-0.5-2.19-2.07-1.97c-0.57,0.08-1.16,0.01-1.74,0.01
		H87.34c-3.25,0-3.25,0-3.26-3.2c0-4.96-1.91-8.76-5.64-11.4c-0.3,0.05-0.61,0.08-0.94,0.08c-2.26,0-3.72-1.23-4.4-2.83
		c-14.92,0-29.85,0-44.77,0l0,0c-0.74,1.17-1.98,2.02-3.73,2.1h0c-5.13,2.87-7.07,7.71-7.04,13.92c0.08,16.02,0.03,32.04,0.03,48.07
		c0,0.58-0.04,1.16,0.01,1.73c0.15,1.82,0.8,3.28,2.96,3.17c2.03-0.1,2.49-1.45,2.48-3.25c-0.03-16.68-0.01-33.37-0.03-50.05
		c0-1.41,0.07-2.81,0.46-4.17c0.93-3.27,3.89-5.56,7.32-5.57c13.41-0.02,26.82-0.03,40.23,0c4.16,0.01,7.57,3.26,7.59,7.54
		c0.08,17.76,0.07,35.51,0,53.27c-0.02,4.35-3.46,7.6-7.8,7.6c-16.81,0.02-33.61,0.02-50.42,0c-4.68-0.01-7.86-3.38-7.86-8.29
		C12.53,55,12.54,38.07,12.54,21.14c0-0.58,0.04-1.16-0.01-1.73c-0.16-1.67-1.22-2.62-2.77-2.58c-1.52,0.04-2.66,0.94-2.67,2.66
		c-0.03,2.89-0.01,5.78-0.01,8.67c0,14.7,0,29.4,0,44.1c0,7.72,5.69,13.38,13.43,13.4c1.89,0,4.41-0.65,5.51,0.3
		c1.3,1.13,0.41,3.71,0.41,5.66c0.03,31.14,0.02,62.27,0.02,93.41c0,2.73,0,5.45,0,8.18h1013.06c0.05-0.16,0.1-0.31,0.15-0.47
		c0.12,0.16,0.23,0.31,0.35,0.47C1041.05,192.66,1040.47,191.71,1040.47,190.98z M1034.32,189.8
		c-167.1-0.06-334.21-0.06-501.31-0.06c-166.86,0-333.71-0.01-500.57,0.06c-2.43,0-3.08-0.48-3.07-3.01
		c0.1-32.88,0.09-65.76,0.02-98.64c0-2.03,0.44-2.57,2.53-2.55c13,0.11,26,0.06,39,0.05c7.42,0,13.17-5.73,13.17-13.13
		c0.01-14.62,0.05-29.24-0.05-43.87c-0.01-2.06,0.47-2.54,2.54-2.53c110.46,0.06,220.93,0.05,331.39,0.05
		c205.03,0,410.06,0.01,615.08-0.06c2.5,0,3.07,0.6,3.07,3.04c0.1,32.54,0.3,65.08,0.49,97.62c0.12,20.07,0.22,40.14,0.44,60.2
		C1037.09,189.18,1036.63,189.8,1034.32,189.8z"/>
	<path class="st1" d="M1039.51,193.21c0.05-0.16,0.1-0.31,0.15-0.47c0.12,0.16,0.23,0.31,0.35,0.47
		C1039.84,193.21,1039.68,193.21,1039.51,193.21z"/>
	<path class="st2" d="M1039.58,134.17c0.12,0.06,0.24,0.06,0.36,0c0,10.64-0.01,21.27-0.01,31.91c0,3.21,0,6.43-0.13,9.64
		C1039.7,161.87,1039.21,148.02,1039.58,134.17z"/>
	<path class="st0" d="M49.81,47.57c0,1.9,0.05,3.8-0.01,5.69c-0.13,4.01-2.23,6.06-6.21,6.08c-3.06,0.02-6.13-0.12-9.18,0.04
		c-3.46,0.17-6.27-2.56-6.05-5.9c0.28-4.19,0.05-8.41,0.07-12.62c0.02-3.17,1.75-5.21,4.9-5.36c3.71-0.18,7.44-0.19,11.16-0.04
		c3.25,0.13,5.14,2.25,5.29,5.68C49.88,43.28,49.8,45.42,49.81,47.57z M33.82,47c0,2.11,0.06,3.84-0.02,5.56
		c-0.05,1.08,0.3,1.42,1.39,1.39c2.55-0.07,5.11-0.08,7.66,0c1.19,0.04,1.56-0.32,1.52-1.51c-0.09-2.63-0.03-5.26-0.03-7.89
		c0-3.9,0-3.91-3.82-3.89c-2.13,0.01-4.94-0.7-6.2,0.37C32.83,42.3,34.06,45.21,33.82,47z"/>
	<path class="st0" d="M50.99,22.19c6.44,0,12.89,0.02,19.33-0.01c1.89-0.01,3.33,0.49,3.33,2.67c0,2.14-1.44,2.77-3.3,2.78
		c-12.97,0.01-25.94,0-38.91,0.01c-1.9,0-3.34-0.72-3.36-2.75c-0.03-2.08,1.41-2.72,3.33-2.71C37.94,22.21,44.46,22.19,50.99,22.19z
		"/>
	<path class="st0" d="M51.08,69.81c-6.37,0-12.75-0.04-19.12,0.02c-1.95,0.02-3.42-0.64-3.41-2.64c0.01-1.95,1.46-2.77,3.4-2.77
		c12.83,0.01,25.66,0.01,38.5,0.01c1.94,0,3.22,0.82,3.2,2.9c-0.02,2.07-1.38,2.52-3.19,2.51C64,69.78,57.54,69.81,51.08,69.81z"/>
	<path class="st0" d="M63.07,51.34c2.56,0,5.13,0.02,7.69-0.01c1.77-0.02,2.86,0.68,2.91,2.56c0.04,1.86-1.08,2.79-2.75,2.81
		c-5.21,0.08-10.42,0.09-15.63-0.01c-1.79-0.03-3.03-1.16-2.84-3.03c0.17-1.73,1.42-2.41,3.18-2.35
		C58.11,51.4,60.59,51.34,63.07,51.34z"/>
	<path class="st0" d="M63.22,38.02c2.48,0,4.96-0.03,7.45,0.01c1.81,0.03,3.03,0.84,2.99,2.82c-0.03,1.87-1.3,2.63-2.94,2.65
		c-5.13,0.06-10.26,0.05-15.39,0.01c-1.72-0.02-2.9-1.02-2.9-2.73c0.01-1.84,1.22-2.77,3.09-2.76
		C58.09,38.02,60.66,38.02,63.22,38.02z"/>
</g>
</svg>
